<svg xmlns="http://www.w3.org/2000/svg" viewBox="0 0 2500 600"><defs></defs><title>RWLogo_v1.1.1-Prime_cut-white</title><g id="Prime_Logo_Cut_White" data-name="Prime Logo Cut White"><g id="name_mark_" data-name="name mark + ®"><g id="RW_Name" data-name="RW Name"><path d="M954.93,232.5l.05,39.29h.81a71.1,71.1,0,0,1,11-18.22,72.46,72.46,0,0,1,15.85-14.35,77.17,77.17,0,0,1,19.11-9.23,68.64,68.64,0,0,1,21.15-3.3,44.94,44.94,0,0,1,12.62,2l.07,54c-2.72-.53-6-1-9.77-1.41a102.3,102.3,0,0,0-11-.6q-15.87,0-26.85,5.36a46.54,46.54,0,0,0-17.68,14.54,58.27,58.27,0,0,0-9.53,21.5,117.67,117.67,0,0,0-2.81,26.6l.13,95.34-57.78.08L900,232.58Z"/><path d="M1120.06,393.1q13,12.66,37.44,12.63,17.49,0,30.1-8.84T1203,378.26l50.86-.07q-12.15,38.06-37.36,54.47t-61,16.44q-24.83,0-44.77-7.9a93.08,93.08,0,0,1-33.8-22.68,102,102,0,0,1-21.41-35.15q-7.56-20.44-7.58-45a123.72,123.72,0,0,1,7.67-44.2,102,102,0,0,1,55.86-59q19.71-8.61,43.73-8.64,26.85,0,46.8,10.37a93.59,93.59,0,0,1,32.79,28A115.73,115.73,0,0,1,1253.39,305a150.42,150.42,0,0,1,4.13,47l-151.76.21Q1107,380.44,1120.06,393.1Zm65.14-111.39q-10.38-11.43-31.54-11.41-13.85,0-23,4.73a43.84,43.84,0,0,0-14.63,11.69,42.86,42.86,0,0,0-7.72,14.74,66.93,66.93,0,0,0-2.62,13.92l94-.13Q1195.6,293.15,1185.2,281.71Z"/><path d="M1277.62,297.12q1.2-20.46,10.13-34a69.34,69.34,0,0,1,22.76-21.71,98.62,98.62,0,0,1,31.11-11.71,177.35,177.35,0,0,1,34.78-3.52,234.59,234.59,0,0,1,32.15,2.21,98,98,0,0,1,29.71,8.75,58.63,58.63,0,0,1,22,18.17q8.55,11.67,8.58,30.89L1469,396.3a219,219,0,0,0,1.66,27.4q1.63,13.1,5.72,19.64l-58.59.08a80.34,80.34,0,0,1-2.66-10,89.5,89.5,0,0,1-1.44-10.44,75.19,75.19,0,0,1-32.51,20.1,130.62,130.62,0,0,1-38.24,5.78,103.41,103.41,0,0,1-28.08-3.64,64.08,64.08,0,0,1-22.8-11.44,53.14,53.14,0,0,1-15.28-19.61q-5.52-11.85-5.53-28.23,0-18,6.26-29.67a53.11,53.11,0,0,1,16.25-18.64,72.87,72.87,0,0,1,22.77-10.46,241.11,241.11,0,0,1,25.83-5.56q13-2.07,25.62-3.32a151.58,151.58,0,0,0,22.38-3.71q9.75-2.46,15.46-7.18t5.26-13.71c0-6.28-1-11.26-3.06-14.93a22.73,22.73,0,0,0-8.16-8.59,32,32,0,0,0-11.8-4.08,96.64,96.64,0,0,0-14.45-1q-17.08,0-26.84,7.4T1335.4,297Zm133.51,42.79A25.74,25.74,0,0,1,1402,345a91.38,91.38,0,0,1-11.8,3.08q-6.32,1.25-13.21,2.07c-4.63.56-9.23,1.25-13.84,2.06a103.49,103.49,0,0,0-12.82,3.3,38,38,0,0,0-11,5.53,26.28,26.28,0,0,0-7.51,8.81q-2.85,5.33-2.84,13.51a27.51,27.51,0,0,0,2.87,13.09,21.88,21.88,0,0,0,7.75,8.37,32.41,32.41,0,0,0,11.39,4.29,73.09,73.09,0,0,0,13.43,1.21q17.08,0,26.44-5.77t13.81-13.73a43.84,43.84,0,0,0,5.47-16.16,110.5,110.5,0,0,0,1-13.09Z"/><path d="M1561.45,151.05l.39,292.15-57.77.08-.39-292.15Z"/><path d="M1782.5,442.89,1744.88,301h-.81l-35.62,142-59.81.08-67-211.45,61-.08,38.84,143.57h.81l34.79-143.67,56.15-.08,36,143.16h.82l38.45-143.26,59.41-.08-66,211.64Z"/><path d="M1976.08,391.88q13,12.64,37.45,12.61,17.49,0,30.09-8.83T2059.06,377l50.85-.07q-12.13,38.06-37.35,54.46t-61,16.46q-24.83,0-44.76-7.92A93,93,0,0,1,1933,417.3a102.36,102.36,0,0,1-21.41-35.17q-7.56-20.43-7.58-45a124.2,124.2,0,0,1,7.66-44.2,102.16,102.16,0,0,1,55.87-59q19.71-8.61,43.73-8.65,26.84,0,46.79,10.37a93.58,93.58,0,0,1,32.8,28,115.38,115.38,0,0,1,18.55,40.07,150.25,150.25,0,0,1,4.15,47.06l-151.77.21Q1963,379.2,1976.08,391.88Zm65.15-111.4q-10.39-11.43-31.54-11.41-13.85,0-23,4.73a43.82,43.82,0,0,0-14.63,11.69,42.37,42.37,0,0,0-7.7,14.74,66.24,66.24,0,0,0-2.63,13.92l94-.13Q2051.63,291.93,2041.23,280.48Z"/><path d="M2137.25,295.88q1.2-20.44,10.14-34a69.15,69.15,0,0,1,22.76-21.71,98.74,98.74,0,0,1,31.09-11.71A176,176,0,0,1,2236,225a234.2,234.2,0,0,1,32.14,2.2,98.27,98.27,0,0,1,29.72,8.76,58.71,58.71,0,0,1,22,18.17q8.55,11.66,8.57,30.89l.15,110.07a219.28,219.28,0,0,0,1.67,27.42q1.63,13.08,5.71,19.63l-58.58.07a81.13,81.13,0,0,1-2.65-10,85.26,85.26,0,0,1-1.44-10.43,75.22,75.22,0,0,1-32.53,20.1,130.11,130.11,0,0,1-38.23,5.77,102.63,102.63,0,0,1-28.08-3.64,64.31,64.31,0,0,1-22.8-11.43,53,53,0,0,1-15.28-19.62q-5.52-11.84-5.54-28.22,0-18,6.27-29.68a52.93,52.93,0,0,1,16.26-18.64,72.59,72.59,0,0,1,22.76-10.45,243.08,243.08,0,0,1,25.83-5.57q13-2.06,25.62-3.31a150.27,150.27,0,0,0,22.38-3.71q9.75-2.46,15.45-7.18t5.27-13.71c0-6.28-1-11.26-3.07-14.94a22.6,22.6,0,0,0-8.15-8.58,31.86,31.86,0,0,0-11.8-4.07,95.15,95.15,0,0,0-14.44-1q-17.1,0-26.85,7.4T2195,295.8Zm133.51,42.79a25.56,25.56,0,0,1-9.15,5.13,92.85,92.85,0,0,1-11.79,3.09q-6.32,1.23-13.22,2.05c-4.61.56-9.22,1.26-13.83,2.06a106.51,106.51,0,0,0-12.81,3.3,37.69,37.69,0,0,0-11,5.55,25.91,25.91,0,0,0-7.52,8.81q-2.85,5.31-2.83,13.49a27.32,27.32,0,0,0,2.87,13.1,21.83,21.83,0,0,0,7.73,8.37,32.32,32.32,0,0,0,11.41,4.29,72.82,72.82,0,0,0,13.42,1.2q17.08,0,26.43-5.75c6.25-3.83,10.84-8.41,13.82-13.74a44.13,44.13,0,0,0,5.47-16.17,110.5,110.5,0,0,0,1-13.09Z"/><path d="M2419.37,230.43l.06,39.28h.81a71.27,71.27,0,0,1,11-18.22,72.49,72.49,0,0,1,15.85-14.35,77.66,77.66,0,0,1,19.11-9.22,68.71,68.71,0,0,1,21.16-3.31,44.92,44.92,0,0,1,12.61,2l.07,54c-2.72-.54-6-1-9.77-1.42a105,105,0,0,0-11-.6q-15.87,0-26.85,5.36a46.45,46.45,0,0,0-17.67,14.55,58,58,0,0,0-9.53,21.5,116.94,116.94,0,0,0-2.83,26.6l.13,95.34-57.77.08-.29-211.56Z"/></g><g id="R"><path d="M2463.38,417a18.07,18.07,0,0,1,4.2-5.87,18.84,18.84,0,0,1,6.09-3.75,20.34,20.34,0,0,1,14.47,0,18.73,18.73,0,0,1,6.09,3.75,17.77,17.77,0,0,1,4.2,5.87,19.79,19.79,0,0,1,0,15.45,18.11,18.11,0,0,1-4.2,5.9,18.4,18.4,0,0,1-6.09,3.75,20.78,20.78,0,0,1-14.47,0,18.95,18.95,0,0,1-10.29-25.1Zm4.6,13.6a14.53,14.53,0,0,0,3,4.67,13.41,13.41,0,0,0,4.45,3.08,13.85,13.85,0,0,0,5.5,1.1,13.7,13.7,0,0,0,5.44-1.1,13.31,13.31,0,0,0,4.45-3.08,15,15,0,0,0,3-4.67,15.38,15.38,0,0,0,1.12-5.9,15.16,15.16,0,0,0-1.12-5.87,14.76,14.76,0,0,0-3-4.63,13.52,13.52,0,0,0-4.45-3.05,13.7,13.7,0,0,0-5.44-1.1,13.85,13.85,0,0,0-5.5,1.1,13.63,13.63,0,0,0-4.45,3.05,14.35,14.35,0,0,0-3,4.63,15.34,15.34,0,0,0-1.09,5.87A15.56,15.56,0,0,0,2468,430.6Zm13.38-16.4a11,11,0,0,1,6,1.4c1.4.93,2.11,2.53,2.11,4.8a6.56,6.56,0,0,1-.42,2.48,4.56,4.56,0,0,1-1.17,1.67,5.35,5.35,0,0,1-1.74,1,9,9,0,0,1-2.14.45l5.57,9.15h-4.33l-5.07-8.95h-2.58v8.95h-4.13V414.2Zm-.06,8.75a7.44,7.44,0,0,0,2.94-.5q1.14-.49,1.14-2.4a2.07,2.07,0,0,0-.4-1.35,2.56,2.56,0,0,0-1-.77,4.8,4.8,0,0,0-1.39-.38,10.75,10.75,0,0,0-1.46-.1h-3.48V423Z"/></g></g><g id="Logomark_cut" data-name="Logomark cut"><polygon id="Bottom" points="120 600 270 600 360 532 450 600 600 600 360 408 120 600"/><polygon id="Top" points="540 0 360 150 180 0 0 0 0 492 120 600 120 100 240 200 240 392 360 300 480 392 480 200 599.52 100 600 600 720 492 720 0 540 0"/></g></g></svg>