<?xml version="1.0" encoding="UTF-8"?> <svg xmlns="http://www.w3.org/2000/svg" viewBox="0 0 72 72"><defs><style>.cls-1{fill:#a83290;}.cls-2{fill:none;stroke:#fff;stroke-miterlimit:10;stroke-width:3px;}.cls-3{fill:#fff;}</style></defs><title>thermal-camera</title><g id="Layer_2" data-name="Layer 2"><g id="Layer_1-2" data-name="Layer 1"><circle class="cls-1" cx="36" cy="36" r="36"></circle><path class="cls-2" d="M31.68,22.7l-2.8,3.06H24A3.07,3.07,0,0,0,21,28.82V47.18A3.07,3.07,0,0,0,24,50.24H48.51a3.06,3.06,0,0,0,3.06-3.06V28.82a3.07,3.07,0,0,0-3.06-3.06H43.66l-2.8-3.06Z"></path><path class="cls-1" d="M45.61,14.72A8.58,8.58,0,0,0,37,23.29V28.6a9.88,9.88,0,0,0-.85,1.16,11.19,11.19,0,1,0,18.84,0,9.88,9.88,0,0,0-.85-1.16V23.29a8.57,8.57,0,0,0-8.57-8.57Z"></path><path class="cls-3" d="M52.88,31.14h0a9.56,9.56,0,0,0-1.25-1.53V23.29a6,6,0,0,0-12,0V29.6a8.66,8.66,0,0,0-1.25,1.54A8.55,8.55,0,0,0,37,35.8a8.64,8.64,0,1,0,15.91-4.66ZM45.61,42.32a6.52,6.52,0,0,1-5.49-10,6.28,6.28,0,0,1,1.45-1.59.39.39,0,0,0,.14-.3v-7.1a3.9,3.9,0,0,1,7.79,0v7.1a.43.43,0,0,0,.14.3,6.28,6.28,0,0,1,1.45,1.59,6.52,6.52,0,0,1-5.48,10Z"></path><path class="cls-3" d="M49.8,35.8a4.19,4.19,0,1,1-6-3.78l.25-.12V27.29h3.13V31.9l.24.12A4.22,4.22,0,0,1,49.8,35.8Z"></path></g></g></svg> 